<svg width="24" height="24" viewBox="0 0 24 24" fill="none" xmlns="http://www.w3.org/2000/svg">
<path d="M21.8 21.5002C19 17.4002 17.2 14.3002 14.4 10.2002L14.3 10.1002C16.9 7.0002 18.6 5.0002 21.2 1.9002C21.2738 1.82639 21.2215 1.7002 21.1172 1.7002H21.1C20.7 1.7002 20.4 1.7002 20 1.7002C19.8 1.7002 19.7 1.7002 19.5 1.7002C19.3 1.7002 19.1 1.8002 19 2.0002C17.1 4.2002 16.2 5.4002 14.3 7.6002C14 8.0002 13.7 8.3002 13.3 8.7002C11.4 6.0002 10.7 4.5002 8.9 1.9002C8.8 1.8002 8.7 1.7002 8.5 1.7002H4H3.5H2.3606C2.20645 1.7002 2.11451 1.87198 2.2 2.00024C5 6.00024 7 9.00024 9.5 13.0002L9.4 13.1002C7.2 15.7002 5.9 17.3002 3.7 19.9002C3.2 20.5002 2.7 21.1002 2.2 21.7002C2.1262 21.774 2.17847 21.9002 2.28284 21.9002H4.3V21.8002C5.2 20.8002 6 19.8002 6.9 18.8002C8.4 17.0002 8.9 16.3002 10.5 14.5002L10.6 14.4002C12.5 17.1002 13.5 18.8002 15.3 21.6002L15.4 21.7002V21.8002H21.6394C21.7936 21.8002 21.8855 21.6284 21.8 21.5002ZM7.8 3.5002C12 9.5002 14.1 13.4002 18.3 19.4002C18.5 19.7002 18.7 19.9002 18.9 20.2002C18.4 20.2002 17.8 20.2002 17.3 20.2002C17 20.2002 16.8 20.2002 16.5 20.2002C16.4 20.2002 16.4 20.2002 16.3 20.1002C12.3 14.3002 10.2 10.5002 6.2 4.7002C5.9 4.2002 5.5 3.8002 5.2 3.3002H5.5C6.2 3.3002 6.9 3.3002 7.7 3.3002C7.7 3.4002 7.7 3.4002 7.8 3.5002Z" fill="#DDDDDD"/>
</svg>
