<svg width="24" height="24" viewBox="0 0 24 24" fill="none" xmlns="http://www.w3.org/2000/svg">
<path d="M21.7999 8.1998C21.7999 7.5998 21.7999 7.0998 21.7999 6.4998C21.7999 6.2998 21.7 5.9998 21.6 5.8998C21.5 5.6998 21.2 5.6998 21 5.5998C20.7999 5.5998 20.6 5.5998 20.5 5.5998C18.5 5.2998 17.1 3.6998 17 1.6998C17 1.3998 16.9 1.1998 16.7 0.999805C16.5 0.799805 16.3 0.799805 16 0.799805H12.8C12.5 0.799805 12.2 0.899805 12 0.999805C11.8 1.1998 11.8 1.4998 11.8 1.7998V15.5998C11.8 15.7998 11.8 16.0998 11.7 16.2998C11.5 17.2998 10.5 17.9998 9.49995 17.9998C9.39995 17.9998 9.19995 17.9998 9.09995 17.9998C7.99995 17.7998 7.29995 16.8998 7.29995 15.7998V15.5998C7.39995 14.4998 8.29995 13.5998 9.49995 13.5998C9.69995 13.5998 9.99995 13.4998 10.1 13.3998C10.3 13.2998 10.4 12.9998 10.4 12.7998C10.4 12.1998 10.4 11.5998 10.4 11.0998C10.4 10.4998 10.4 9.8998 10.4 9.3998C10.4 9.1998 10.3 8.89981 10.1 8.7998C9.99995 8.4998 9.79995 8.3998 9.49995 8.3998C8.79995 8.3998 7.99995 8.4998 7.29995 8.7998C4.19995 9.7998 2.19995 12.6998 2.19995 15.7998C2.19995 16.1998 2.19995 16.6998 2.29995 17.0998C2.79995 19.9998 4.99995 22.2998 7.79995 22.9998C8.19995 23.0998 8.59995 23.0998 8.89995 23.1998H9.99995C10.3 23.1998 10.6 23.0998 10.8 23.0998C14.1 22.4998 16.7 19.4998 16.8 16.0998C16.8 15.0998 16.8 13.9998 16.8 12.9998C16.8 11.9998 16.8 10.9998 16.8 9.8998C18 10.4998 19.3 10.7998 20.7 10.7998C21 10.7998 21.1999 10.6998 21.2999 10.5998C21.5 10.3998 21.6 10.1998 21.6 9.9998C21.8 9.3998 21.7999 8.7998 21.7999 8.1998ZM16.7 7.7998C16.5 7.6998 16.3 7.5998 16.1 7.5998H15.8C15.4 7.6998 15.2 8.0998 15.2 8.4998V10.1998C15.2 11.2998 15.2 12.3998 15.2 13.5998C15.2 14.3998 15.2 15.2998 15.2 16.0998C15.2 18.6998 13.1 21.0998 10.5 21.4998C10.2 21.4998 9.89995 21.5998 9.59995 21.5998C6.79995 21.5998 4.39995 19.5998 3.89995 16.6998C3.89995 16.3998 3.79995 16.1998 3.79995 15.8998C3.79995 13.1998 5.79995 10.7998 8.49995 10.2998H8.59995V12.0998C6.79995 12.4998 5.59995 13.9998 5.49995 15.7998V15.9998C5.49995 17.8998 7.09995 19.6998 8.99995 19.8998C9.09995 19.8998 9.29995 19.8998 9.39995 19.8998C11.3 19.8998 13 18.5998 13.3 16.5998C13.4 16.2998 13.4 15.9998 13.4 15.7998C13.4 11.3998 13.4 7.0998 13.4 2.7998V2.5998H15.2C15.2 2.7998 15.3 2.9998 15.3 3.1998C16 5.4998 17.5999 6.8998 19.9 7.2998V9.0998C19.5 8.9998 19 8.89981 18.6 8.7998C18 8.5998 17.3 8.1998 16.7 7.7998Z" fill="#DDDDDD"/>
</svg>
