<svg width="32" height="32" viewBox="0 0 32 32" fill="none" xmlns="http://www.w3.org/2000/svg">
<g clip-path="url(#clip0_2115_549)">
<path d="M32 12.8125V11.625C31.9183 11.2733 31.8625 10.9142 31.7517 10.5717C31.0258 8.34 29.5192 6.95667 27.2325 6.43C27.1425 6.41 27.0533 6.38583 27.03 6.38C26.92 5.66083 26.8992 4.95083 26.6967 4.2975C25.9492 1.89167 24.3008 0.480833 21.8175 0.0566667C21.7583 0.0466667 21.7025 0.0191667 21.645 0H20.46C20.1158 0.0733333 19.7667 0.1275 19.4292 0.223333C18.1033 0.598333 17.0358 1.3525 16.22 2.46417C16.1658 2.53833 16.1108 2.6125 16.04 2.70833C15.985 2.64333 15.9375 2.59417 15.8975 2.53917C14.875 1.12833 13.5117 0.285 11.78 0.0508333C11.72 0.0425 11.6617 0.0175 11.6025 0H10.4175C9.83168 0.1675 9.22084 0.273333 8.66668 0.5125C6.44834 1.47 5.08168 3.63917 5.11751 6.06C5.11834 6.1525 5.11751 6.245 5.11751 6.3575C2.91501 6.78917 1.30418 7.98833 0.480011 10.0933C-0.345822 12.2042 0.0350111 14.1767 1.37501 16C0.0425111 17.7925 -0.347489 19.7675 0.467511 21.8775C1.28168 23.9867 2.88751 25.1992 5.05501 25.6275C5.13251 26.2458 5.15501 26.8633 5.29334 27.4542C5.85168 29.8433 7.82584 31.6125 10.2458 31.9433C10.3042 31.9517 10.36 31.9808 10.4175 32H11.6025C12.035 31.8983 12.4775 31.8258 12.8992 31.6908C14.1033 31.3033 15.07 30.5767 15.8242 29.5617C15.885 29.4792 15.945 29.3958 16.0217 29.2917C16.0717 29.3475 16.115 29.3875 16.1483 29.4342C17.1767 30.8717 18.5592 31.7208 20.3142 31.9525C20.3633 31.9592 20.4117 31.9842 20.46 32H21.645C21.9567 31.9308 22.2717 31.8758 22.5783 31.79C25.2192 31.0542 26.9867 28.6758 26.945 25.9217C26.9433 25.8392 26.9442 25.7558 26.9442 25.6375C27.0808 25.6083 27.2183 25.5792 27.355 25.5492C29.7642 25.0208 31.6092 23.0083 31.9442 20.5467C31.9517 20.4875 31.9808 20.4325 32 20.375V19.125C31.9475 18.8842 31.8967 18.6417 31.8417 18.4017C31.64 17.515 31.2375 16.725 30.6733 16C31.2367 15.2758 31.6408 14.4858 31.8408 13.5992C31.9 13.3383 31.9475 13.075 32 12.8125ZM15.0942 26.0192C15.09 28.3633 13.235 30.175 10.9067 30.1233C8.67418 30.0733 6.85084 28.0783 6.98668 25.8433C6.99834 25.65 7.06918 25.5833 7.25501 25.5433C8.32501 25.3117 9.25834 24.8125 10.0575 24.0617C10.5175 23.6308 10.5775 23.0617 10.2042 22.6517C9.83751 22.25 9.25834 22.2617 8.79001 22.6817C7.02834 24.2592 4.56001 24.1783 3.00668 22.4925C1.52168 20.88 1.58501 18.395 3.15084 16.8525C3.79918 16.2142 3.79751 15.7875 3.14501 15.1408C1.56501 13.5767 1.52501 11.0733 3.05418 9.455C4.56918 7.8525 7.06418 7.76083 8.70668 9.235C8.88668 9.39667 9.10584 9.55 9.33251 9.615C9.73918 9.7325 10.14 9.52167 10.3333 9.1625C10.5375 8.785 10.4683 8.33667 10.1425 8.01917C9.34251 7.23833 8.40084 6.70917 7.30751 6.47167C7.06918 6.42 6.99001 6.33 6.98334 6.08583C6.92418 3.8325 8.70251 1.92167 10.9142 1.87667C13.2175 1.83 15.0858 3.62833 15.0925 5.925C15.1025 9.27917 15.095 12.6333 15.095 15.9875C15.0958 19.3317 15.0992 22.675 15.0942 26.0192ZM28.8708 16.8142C30.0808 17.9833 30.4542 19.7142 29.8317 21.2658C29.21 22.8167 27.7175 23.8342 26.0275 23.8025C25.3592 23.79 24.9808 24.1608 24.9208 24.5817C24.895 24.7608 24.9283 24.9542 24.9658 25.1342C25.3042 26.7883 24.8383 28.1842 23.5333 29.2317C22.245 30.265 20.7758 30.4358 19.2892 29.72C17.7825 28.9958 17.0083 27.7358 16.97 26.0517C16.9508 25.1983 16.9667 24.3433 16.9667 23.4892V23.1883C17.6183 23.1883 18.2392 23.1775 18.8592 23.2C18.945 23.2025 19.0542 23.3492 19.1042 23.4533C19.6208 24.5117 20.7175 25.15 21.8742 25.0542C23.0192 24.96 24.0058 24.1558 24.3317 23.0517C24.7458 21.6483 24.0175 20.155 22.6633 19.6308C21.2958 19.1008 19.7642 19.6942 19.1342 21.0217C19.0208 21.26 18.8917 21.3258 18.6458 21.3183C18.0975 21.3 17.5492 21.3125 16.9842 21.3125V16.9375H17.275C18.5842 16.9375 19.8942 16.9408 21.2042 16.9342C21.4 16.9325 21.5075 16.9725 21.6 17.1742C22.2058 18.4867 23.6608 19.1158 25.0142 18.6725C26.34 18.2383 27.1425 16.8867 26.8958 15.5008C26.6483 14.11 25.4183 13.1133 23.9942 13.1967C22.885 13.2617 22.0842 13.8308 21.5925 14.8292C21.5267 14.9617 21.4867 15.07 21.2917 15.0683C19.8992 15.0567 18.5058 15.0617 17.1125 15.0608C17.0733 15.0608 17.0342 15.0517 16.9817 15.0442V10.6892C17.6217 10.6892 18.2617 10.6817 18.9008 10.7C18.9692 10.7017 19.0525 10.8417 19.0967 10.9333C19.9492 12.72 22.2858 13.1308 23.645 11.7108C24.4692 10.8492 24.6842 9.81583 24.2417 8.70917C23.8042 7.61667 22.9492 7.00417 21.7733 6.95083C20.5833 6.89583 19.6917 7.44333 19.1442 8.50333C19.0208 8.7425 18.9025 8.83167 18.635 8.82C18.0967 8.79583 17.5558 8.8125 16.9142 8.8125C16.9692 7.52167 16.8817 6.2425 17.1075 5.02083C17.5125 2.82833 19.7608 1.475 21.9017 1.97417C24.1125 2.48917 25.4683 4.64 24.9692 6.83917C24.7708 7.715 25.145 8.19 26.0325 8.18833C27.72 8.18417 29.2117 9.185 29.8342 10.7383C30.455 12.2867 30.0792 14.0167 28.8675 15.1892C28.2817 15.755 28.2833 16.2458 28.8708 16.8142ZM20.7108 22.2342C20.7192 21.7283 21.1475 21.3092 21.6525 21.3133C22.1567 21.3175 22.5792 21.7442 22.58 22.2492C22.58 22.755 22.1575 23.1817 21.6533 23.1867C21.1375 23.1908 20.7025 22.7517 20.7108 22.2342ZM23.2058 15.9917C23.21 15.4858 23.635 15.0633 24.14 15.0633C24.6442 15.0633 25.07 15.4867 25.075 15.9917C25.0792 16.5092 24.6408 16.945 24.125 16.9367C23.62 16.9275 23.2017 16.4975 23.2058 15.9917ZM20.7108 9.74417C20.7133 9.23917 21.1383 8.815 21.6425 8.81333C22.1467 8.81167 22.5742 9.23417 22.58 9.73917C22.5858 10.2567 22.1483 10.6933 21.6317 10.6867C21.1275 10.6792 20.7083 10.2508 20.7108 9.74417Z" fill="#FFB606"/>
</g>
<defs>
<clipPath id="clip0_2115_549">
<rect width="32" height="32" fill="white"/>
</clipPath>
</defs>
</svg>
