<svg width="22" height="22" viewBox="0 0 22 22" fill="none" xmlns="http://www.w3.org/2000/svg">
<path fill-rule="evenodd" clip-rule="evenodd" d="M5.9856 1.65723C3.63839 1.65723 1.7356 3.56002 1.7356 5.90723V15.9072C1.7356 18.2544 3.63839 20.1572 5.9856 20.1572H15.9856C18.3328 20.1572 20.2356 18.2544 20.2356 15.9072V5.90723C20.2356 3.56002 18.3328 1.65723 15.9856 1.65723H5.9856ZM0.235596 5.90723C0.235596 2.73159 2.80996 0.157227 5.9856 0.157227H15.9856C19.1612 0.157227 21.7356 2.73159 21.7356 5.90723V15.9072C21.7356 19.0829 19.1612 21.6572 15.9856 21.6572H5.9856C2.80996 21.6572 0.235596 19.0829 0.235596 15.9072V5.90723Z" fill="#DDDDDD"/>
<path fill-rule="evenodd" clip-rule="evenodd" d="M11.5055 7.64942C10.8293 7.54914 10.1387 7.66464 9.53196 7.97949C8.92519 8.29433 8.43314 8.79249 8.1258 9.4031C7.81846 10.0137 7.71149 10.7057 7.82009 11.3806C7.92869 12.0555 8.24734 12.679 8.73072 13.1624C9.21409 13.6457 9.83757 13.9644 10.5125 14.073C11.1874 14.1816 11.8794 14.0746 12.49 13.7673C13.1006 13.4599 13.5987 12.9679 13.9136 12.3611C14.2284 11.7543 14.3439 11.0637 14.2437 10.3875C14.1414 9.69779 13.82 9.05923 13.3269 8.56617C12.8339 8.07311 12.1953 7.7517 11.5055 7.64942ZM8.8411 6.64805C9.72793 6.1879 10.7373 6.01909 11.7256 6.16564C12.7337 6.31513 13.6669 6.78488 14.3876 7.50551C15.1082 8.22613 15.5779 9.15942 15.7274 10.1675C15.874 11.1558 15.7052 12.1651 15.245 13.052C14.7849 13.9388 14.0568 14.6579 13.1644 15.1071C12.2719 15.5563 11.2606 15.7127 10.2742 15.5539C9.28777 15.3952 8.37653 14.9295 7.67006 14.223C6.96359 13.5166 6.49787 12.6053 6.33914 11.6189C6.18041 10.6325 6.33676 9.62114 6.78595 8.72871C7.23513 7.83628 7.95428 7.10821 8.8411 6.64805Z" fill="#DDDDDD"/>
<path fill-rule="evenodd" clip-rule="evenodd" d="M15.7356 5.40723C15.7356 4.99301 16.0714 4.65723 16.4856 4.65723H16.4956C16.9098 4.65723 17.2456 4.99301 17.2456 5.40723C17.2456 5.82144 16.9098 6.15723 16.4956 6.15723H16.4856C16.0714 6.15723 15.7356 5.82144 15.7356 5.40723Z" fill="#DDDDDD"/>
</svg>
