<svg width="32" height="32" viewBox="0 0 32 32" fill="none" xmlns="http://www.w3.org/2000/svg">
<path d="M26.1208 9.09487C24.6667 3.30154 19.125 -0.170963 13.0383 1.53904C8.59999 2.78654 5.87166 6.90237 5.62082 11.0582C5.42416 14.3274 6.56166 17.074 8.97832 19.2849C9.86583 20.0965 10.4858 21.0799 10.8258 22.2357C10.9067 22.509 10.9542 22.7924 11.0158 23.0674C10.3858 23.2465 10.1192 23.509 10.1042 23.9607C10.0825 24.629 10.4775 24.929 11.1042 25.0057C10.8892 28.0357 12.1242 30.0674 15.0758 30.9432C15.16 31.5799 15.2308 31.6865 15.7817 31.9999H16.2808C16.7558 31.7949 17.0017 31.4357 16.9792 30.9232C19.4383 30.3682 21.1317 28.2457 20.975 25.6315C20.9633 25.4265 20.9733 25.2199 20.9733 25.0249C21.7108 24.7974 21.9467 24.5699 21.965 24.0874C21.985 23.5815 21.7833 23.3457 21.08 23.0574C21.08 23.0182 21.0758 22.9765 21.0808 22.9357C21.0875 22.874 21.0975 22.8124 21.11 22.7515C21.4042 21.3874 22.0675 20.2382 23.0883 19.2865C26.0883 16.4857 27.1133 13.049 26.1208 9.09487ZM17.64 28.6732C16.415 29.404 14.7942 29.1932 13.8208 28.1965C13.3208 27.6849 13.0558 27.0582 12.9908 26.3582C12.95 25.9165 12.9833 25.4682 12.9833 24.989H19.0492C19.2642 26.5382 18.9308 27.9024 17.64 28.6732ZM13.6517 13.889C12.8783 14.9424 12.91 16.389 13.7292 17.4324C14.5408 18.4649 15.9583 18.839 17.1533 18.3357C18.3683 17.8249 19.125 16.5165 18.9525 15.209C18.9267 15.0149 18.8967 14.8057 18.8033 14.639C18.6467 14.359 18.7492 14.1957 18.9525 14.004C19.3992 13.5824 19.8183 13.1332 20.2617 12.709C20.3567 12.6182 20.5067 12.5365 20.6325 12.5349C21.88 12.5224 23.1267 12.5274 24.3742 12.5282C24.425 12.5282 24.475 12.5407 24.5525 12.5499C24.4883 13.3424 24.2817 14.0882 23.99 14.8099C23.5342 15.934 22.8808 16.934 21.9825 17.7499C20.4475 19.1457 19.485 20.8415 19.1892 22.9065C19.18 22.9665 19.1533 23.024 19.1317 23.0915H12.9225C12.8875 22.9032 12.8492 22.714 12.8175 22.5232C12.5383 20.8282 11.69 19.4415 10.5333 18.2065C9.91583 17.5474 9.31333 16.8649 8.78249 16.1365C8.01333 15.0832 7.65333 13.8615 7.50999 12.5274H7.87333C9.19333 12.5274 10.5133 12.5199 11.8333 12.5315C12.2342 12.5349 12.5517 12.4107 12.8317 12.119C13.3933 11.5324 13.9783 10.9699 14.5442 10.3882C14.6725 10.2565 14.7733 10.2382 14.9483 10.3082C16.19 10.8024 17.5992 10.3924 18.4008 9.3182C19.1833 8.2682 19.1642 6.82987 18.3542 5.77404C17.5658 4.74737 16.1558 4.35237 14.9658 4.82404C13.7492 5.30654 12.9625 6.6032 13.1108 7.91737C13.1408 8.18237 13.2558 8.43654 13.3083 8.69987C13.3283 8.8007 13.3225 8.9532 13.2617 9.01737C12.7733 9.52904 12.2708 10.0274 11.765 10.5224C11.6983 10.5882 11.5883 10.6457 11.4975 10.6457C10.2083 10.6532 8.91999 10.6499 7.63083 10.6474C7.60166 10.6474 7.57333 10.6307 7.54499 10.6224C7.85583 7.09404 10.5542 3.4582 15.2992 3.0782C20.0908 2.69487 23.9858 5.89154 24.5542 10.6524H24.1667C22.8675 10.6524 21.5683 10.659 20.2692 10.6482C19.8458 10.6449 19.5117 10.7774 19.2167 11.0865C18.6642 11.6674 18.0858 12.2215 17.5258 12.7949C17.4 12.9232 17.3008 12.9507 17.1225 12.879C15.8692 12.3774 14.455 12.7949 13.6517 13.889ZM17.0967 15.6115C17.0958 16.2015 16.6108 16.6882 16.0317 16.6815C15.4325 16.674 14.9725 16.2074 14.9733 15.6074C14.9742 14.9999 15.4242 14.5507 16.0358 14.5474C16.6292 14.544 17.0983 15.014 17.0967 15.6115ZM14.9692 7.57737C14.9675 6.98987 15.4533 6.49987 16.0317 6.50487C16.6342 6.50987 17.0908 6.96987 17.0917 7.5732C17.0933 8.18404 16.6458 8.63404 16.035 8.6382C15.4425 8.6432 14.97 8.1732 14.9692 7.57737Z" fill="#FFB606"/>
<path d="M7.11415 2.66917C6.78748 2.98917 6.29415 3.06667 5.95332 2.77333C5.49165 2.37417 5.04748 1.94417 4.65248 1.47917C4.28748 1.05 4.47082 0.388333 4.96748 0.118333C5.03832 0.08 5.10748 0.0391667 5.17748 0H5.61415C6.28832 0.359167 6.75498 0.951667 7.24082 1.51C7.53415 1.84833 7.44082 2.34833 7.11415 2.66917Z" fill="#FFB606"/>
<path d="M32 11.3751V11.8126C31.7958 12.3526 31.4 12.5634 30.8342 12.5318C30.4317 12.5093 30.0258 12.5326 29.6217 12.5259C29.05 12.5151 28.6467 12.1434 28.6317 11.6226C28.6158 11.0884 29.0133 10.6776 29.5933 10.6576C30.0692 10.6418 30.5467 10.6534 31.0233 10.6551C31.5233 10.6568 31.8275 10.9268 32 11.3751Z" fill="#FFB606"/>
<path d="M27.4 1.50167C27.0133 1.93417 26.6025 2.34833 26.1717 2.73667C25.8242 3.05 25.2867 3.00083 24.9533 2.67833C24.6317 2.3675 24.5342 1.81333 24.8408 1.48917C25.3425 0.96 25.9092 0.493333 26.4483 0H26.885C27.0575 0.126667 27.26 0.2275 27.3967 0.385C27.6775 0.7075 27.6875 1.18 27.4 1.50167Z" fill="#FFB606"/>
<path d="M3.42999 11.6243C3.41582 12.1135 3.07082 12.481 2.56832 12.5168C2.28916 12.536 2.00832 12.5202 1.72832 12.5202V12.5227C1.46916 12.5227 1.20916 12.5368 0.950825 12.5202C0.446658 12.4877 0.0733246 12.0943 0.0649913 11.6077C0.0566579 11.1235 0.417491 10.6977 0.921658 10.671C1.47916 10.6418 2.04166 10.641 2.59999 10.676C3.11749 10.7085 3.44499 11.1152 3.42999 11.6243Z" fill="#FFB606"/>
<path d="M7.12666 21.836C6.77833 22.2068 6.41833 22.5668 6.04833 22.916C5.74916 23.1977 5.3925 23.2635 5.0125 23.0885C4.6575 22.9243 4.48916 22.6327 4.41333 22.2102C4.52666 21.9977 4.60583 21.7552 4.76 21.5793C5.08166 21.2127 5.43666 20.876 5.78916 20.5377C6.2 20.1435 6.74166 20.1435 7.12166 20.5235C7.49666 20.8977 7.5075 21.4293 7.12666 21.836Z" fill="#FFB606"/>
<path d="M27.5975 22.1418C27.575 22.6443 27.4 22.9326 27.045 23.0943C26.6892 23.2551 26.3408 23.2085 26.0592 22.9485C25.655 22.5751 25.2642 22.186 24.895 21.7785C24.5517 21.3993 24.5942 20.8701 24.955 20.516C25.305 20.1718 25.825 20.1318 26.1925 20.4651C26.6067 20.8418 27.0033 21.241 27.3767 21.6585C27.5108 21.8085 27.5542 22.041 27.5975 22.1418Z" fill="#FFB606"/>
</svg>
