<svg width="32" height="30" viewBox="0 0 32 30" fill="none" xmlns="http://www.w3.org/2000/svg">
<path d="M31.9325 18.7001C31.655 17.5076 30.6742 16.6268 29.4617 16.5168C29.0525 16.4793 28.6367 16.511 28.1942 16.511C28.1942 15.951 28.2017 15.4326 28.1925 14.9151C28.1717 13.721 27.2358 12.7718 26.05 12.7535C25.1875 12.7401 24.3242 12.7401 23.4617 12.7543C22.4433 12.771 21.5858 13.4951 21.3867 14.4985C21.3375 14.7451 21.3325 15.001 21.3042 15.2868C20.0367 14.2668 18.6225 13.6651 16.9992 13.4326C18.5117 12.006 19.335 10.3026 19.3908 8.26763C19.4467 6.21929 18.74 4.44929 17.3 2.99346C14.7475 0.412627 10.6775 0.156793 7.83418 2.38679C6.42834 3.48929 5.51751 4.91929 5.19251 6.67596C4.70584 9.31096 5.51418 11.5493 7.43251 13.4318C7.22418 13.4685 7.06001 13.4935 6.89751 13.5268C2.83417 14.3635 0.066675 17.7643 0.0625083 21.9285C0.0608417 23.9393 0.0625083 25.9493 0.0625083 27.9593C0.0625083 28.7935 0.396675 29.1251 1.23751 29.1251H25.5008C26.7383 29.1251 27.9758 29.1343 29.2125 29.1218C30.5317 29.1093 31.6342 28.2085 31.9325 26.9251C31.9517 26.8451 31.9775 26.7668 32 26.6876V18.9376C31.9775 18.8585 31.9517 18.7801 31.9325 18.7001ZM23.2267 14.8876C23.2317 14.7943 23.4358 14.641 23.5517 14.6376C24.3592 14.616 25.1692 14.6243 25.9775 14.6268C26.1858 14.6276 26.3158 14.7401 26.3192 14.9501C26.3275 15.456 26.3225 15.9626 26.3225 16.4951H23.2108C23.2108 15.9568 23.195 15.421 23.2267 14.8876ZM6.92417 8.02513C6.93751 5.10846 9.33168 2.74013 12.255 2.75013C15.1683 2.76096 17.5367 5.15679 17.5283 8.08346C17.5192 11.0035 15.1317 13.3801 12.2125 13.3751C9.28501 13.3693 6.91084 10.9676 6.92417 8.02513ZM13.3008 15.2651C13.1958 15.8935 13.0942 16.5026 12.9908 17.1251C12.5158 17.1251 12.0708 17.131 11.6258 17.1185C11.56 17.1168 11.45 17.036 11.4392 16.9776C11.3358 16.4168 11.2492 15.8535 11.1525 15.2651H13.3008ZM1.93334 27.2368V26.9126C1.93334 25.236 1.93084 23.5593 1.93417 21.8835C1.94084 18.586 4.20251 15.8868 7.44418 15.3393C8.02334 15.241 8.62168 15.256 9.24084 15.2168C9.34668 15.8418 9.40167 16.4351 9.55251 17.0026C9.82501 18.0285 9.58834 19.0268 9.46001 20.031C9.25251 21.651 9.02584 23.2685 8.80584 24.8868C8.76251 25.2068 8.85918 25.4776 9.06001 25.7251C9.45334 26.2093 9.83834 26.6993 10.2675 27.2368H1.93334ZM13.5375 25.0535C13.0967 25.5751 12.68 26.1168 12.2267 26.6851C11.725 26.0576 11.245 25.4618 10.7742 24.8585C10.7308 24.8035 10.725 24.7001 10.735 24.6235C10.9817 22.7593 11.2325 20.8951 11.485 19.0143H12.9675C13.1167 20.126 13.2642 21.2268 13.4117 22.3268C13.505 23.0276 13.59 23.7293 13.6975 24.4285C13.735 24.671 13.7033 24.8576 13.5375 25.0535ZM17.5333 26.2801C17.5342 26.5885 17.5992 26.8968 17.6383 27.2376H14.185C14.5167 26.821 14.79 26.4176 15.125 26.0735C15.5983 25.586 15.6917 25.0518 15.5917 24.391C15.2817 22.3335 15.0092 20.2693 14.76 18.2043C14.7158 17.836 14.845 17.4451 14.9042 17.0668C14.9967 16.4718 15.0983 15.8785 15.1992 15.2693C16.8883 15.146 18.4233 15.5051 19.8325 16.5201C19.7267 16.5576 19.6558 16.586 19.5842 16.6076C18.3333 16.981 17.5333 18.0351 17.53 19.3443C17.5242 21.656 17.5242 23.9685 17.5333 26.2801ZM19.4242 19.1501C19.4633 18.676 19.8858 18.3768 20.4042 18.376C21.9933 18.3735 23.5825 18.3751 25.1717 18.3751C26.47 18.3751 27.7683 18.3743 29.0667 18.376C29.7542 18.376 30.1258 18.7485 30.1283 19.4343C30.13 19.901 30.1283 20.3676 30.1283 20.8643H19.4125C19.4125 20.2851 19.3767 19.7143 19.4242 19.1501ZM30.12 26.3776C30.1108 26.8935 29.6825 27.2468 29.1292 27.2485C27.9342 27.2526 26.74 27.2501 25.545 27.2501C23.8625 27.2501 22.1792 27.251 20.4967 27.2501C19.7642 27.2493 19.4008 26.8893 19.4 26.1635C19.3992 25.0401 19.4 23.9176 19.4 22.7726H30.1258C30.1258 23.9868 30.1392 25.1826 30.12 26.3776Z" fill="#FFB606"/>
</svg>
