<svg width="24" height="18" viewBox="0 0 24 18" fill="none" xmlns="http://www.w3.org/2000/svg">
<path fill-rule="evenodd" clip-rule="evenodd" d="M11.9998 0.25C11.9999 0.25 12 0.25 12 1L11.9999 1.75L11.9239 1.75011C11.8737 1.75022 11.7996 1.75044 11.7045 1.75089C11.5143 1.75178 11.2404 1.75357 10.9061 1.75714C10.2373 1.7643 9.32857 1.7786 8.36724 1.80717C7.40471 1.83577 6.39548 1.8785 5.5239 1.94208C4.63573 2.00686 3.95274 2.08951 3.59895 2.18315C3.25725 2.2808 2.94713 2.46646 2.69965 2.7216C2.45632 2.97246 2.28197 3.28178 2.1933 3.61956C1.88986 5.31141 1.74146 7.02744 1.74995 8.74629L1.74999 8.75471C1.73915 10.4823 1.88674 12.2071 2.19101 13.9077C2.28888 14.2304 2.4657 14.5239 2.70568 14.7614C2.95332 15.0065 3.25986 15.1837 3.59581 15.276C3.94868 15.37 4.63308 15.4529 5.5239 15.5179C6.39548 15.5815 7.40471 15.6242 8.36724 15.6528C9.32857 15.6814 10.2373 15.6957 10.9061 15.7029C11.2404 15.7064 11.5143 15.7082 11.7045 15.7091C11.7996 15.7096 11.8737 15.7098 11.9239 15.7099L11.9999 15.71L12 16.46C12 17.21 11.9999 17.21 11.9998 17.21L11.9206 17.2099C11.8692 17.2098 11.7939 17.2095 11.6975 17.2091C11.5047 17.2082 11.2277 17.2064 10.8901 17.2028C10.2151 17.1955 9.29635 17.1811 8.32268 17.1522C7.35021 17.1233 6.31695 17.0798 5.41478 17.014C4.53358 16.9497 3.71393 16.8603 3.20619 16.7245L3.20202 16.7234C2.61643 16.5632 2.08205 16.2546 1.65053 15.8275C1.21901 15.4005 0.904932 14.8693 0.738642 14.2854C0.731863 14.2616 0.726266 14.2375 0.721873 14.2131C0.396685 12.4103 0.238707 10.5814 0.24995 8.7495C0.241223 6.93135 0.399189 5.11622 0.721867 3.3269C0.724833 3.31045 0.728348 3.29411 0.732405 3.27789C0.883241 2.67527 1.19044 2.12312 1.62296 1.67721C2.05549 1.23131 2.59803 0.907442 3.19579 0.738326L3.20617 0.735389C3.71391 0.599599 4.53358 0.510323 5.41478 0.44605C6.31695 0.380247 7.35021 0.336729 8.32268 0.307831C9.29635 0.278898 10.2151 0.264451 10.8901 0.25723C11.2277 0.253619 11.5047 0.251811 11.6975 0.250907C11.7939 0.250454 11.8692 0.250228 11.9206 0.250114L11.9998 0.25ZM20.4009 15.2769C20.0472 15.3705 19.3642 15.4531 18.476 15.5179C17.6044 15.5815 16.5952 15.6242 15.6327 15.6528C14.6714 15.6814 13.7626 15.6957 13.0938 15.7029C12.7596 15.7064 12.4856 15.7082 12.2954 15.7091C12.2003 15.7096 12.1262 15.7098 12.076 15.7099L11.9999 15.71L12 16.46C12 17.21 11.9999 17.21 11.9998 17.21L12.0793 17.2099C12.1307 17.2098 12.2061 17.2095 12.3025 17.2091C12.4952 17.2082 12.7722 17.2064 13.1099 17.2028C13.7848 17.1955 14.7036 17.1811 15.6772 17.1522C16.6497 17.1233 17.683 17.0798 18.5851 17.014C19.4663 16.9497 20.286 16.8603 20.7937 16.7245L20.8041 16.7217C21.4019 16.5526 21.9444 16.2287 22.377 15.7828C22.8095 15.3369 23.1167 14.7847 23.2675 14.1821C23.2716 14.1659 23.2751 14.1495 23.2781 14.1331C23.5983 12.3571 23.7562 10.5557 23.75 8.75105C23.7612 6.91901 23.6033 5.08985 23.2781 3.28686C23.2751 3.27043 23.2716 3.2541 23.2675 3.23789C23.1167 2.63527 22.8095 2.08312 22.377 1.63721C21.9444 1.19131 21.4019 0.867442 20.8041 0.698327C20.7954 0.695862 20.7867 0.693555 20.7779 0.691407C20.2761 0.568876 19.4619 0.487546 18.5804 0.428845C17.6796 0.368852 16.6473 0.329149 15.6753 0.302776C14.7022 0.276373 13.7838 0.263188 13.1092 0.256598C12.7717 0.253302 12.4948 0.251653 12.3022 0.250827C12.2058 0.250414 12.1305 0.250208 12.0792 0.250104L11.9998 0.25C11.9999 0.25 12 0.25 12 1L11.9999 1.75L12.0761 1.7501L12.2957 1.75081C12.486 1.75163 12.7601 1.75326 13.0945 1.75653C13.7636 1.76306 14.6728 1.77613 15.6346 1.80222C16.5976 1.82835 17.6079 1.8674 18.4808 1.92553C19.3621 1.98423 20.0469 2.05926 20.4087 2.14538C20.7474 2.24362 21.0547 2.4284 21.3003 2.6816C21.5436 2.93246 21.718 3.2418 21.8066 3.57958C22.1124 5.28423 22.2609 7.01342 22.25 8.74529L22.25 8.7527C22.2561 10.4585 22.1077 12.1614 21.8066 13.8404C21.718 14.1782 21.5436 14.4875 21.3003 14.7384C21.0528 14.9935 20.7427 15.1792 20.4009 15.2769Z" fill="#DDDDDD"/>
<path fill-rule="evenodd" clip-rule="evenodd" d="M9.37289 4.83217C9.60374 4.69788 9.8886 4.69649 10.1208 4.82852L15.8708 8.09852C16.1052 8.23184 16.25 8.48077 16.25 8.75047C16.25 9.02016 16.1052 9.26909 15.8708 9.40242L10.1208 12.6724C9.8886 12.8044 9.60374 12.8031 9.37289 12.6688C9.14203 12.5345 9 12.2875 9 12.0205V5.48047C9 5.21339 9.14203 4.96647 9.37289 4.83217ZM10.5 6.76979V10.7311L13.9828 8.75047L10.5 6.76979Z" fill="#DDDDDD"/>
</svg>
